<svg class="mybrown" aria-hidden="true" width="215" height="48" viewBox="0 0 268 50">  <g>
    <path d="M8.61187958,39.9152542 L8.61187958,38.8474576 C6.79478265,38.61736 6.43979853,38.3872625 6.41995294,36.101711 L6.41903987,26.5084746 C7.57526444,25.559322 9.05044752,24.5706215 10.5256306,24.5706215 C12.7982099,24.5706215 13.8746949,26.0734463 13.8746949,29 L13.8746949,35.8813559 C13.8746949,38.4124294 13.5557364,38.6101695 11.2034174,38.8474576 L11.2034174,39.9152542 L19.8551668,39.9152542 L19.8551668,38.8474576 C17.7420667,38.6101695 17.3832384,38.3728814 17.3832384,35.920904 L17.3832384,28.1694915 C17.3832384,27.4576271 17.3433686,26.9830508 17.263629,26.5084746 C18.738812,25.3220339 20.1342555,24.6101695 21.4898291,24.6101695 C23.7624085,24.6101695 24.8388934,26.1525424 24.8388934,29.039548 L24.8388934,35.6836158 C24.8388934,38.4124294 24.4401953,38.6101695 22.2074858,38.8474576 L22.2074858,39.9152542 L30.8592352,39.9152542 L30.8592352,38.8474576 C28.649783,38.5783114 28.3622958,38.4586908 28.3480291,36.0536114 L28.3474369,28.2090395 C28.3474369,24.3333333 26.3938161,22.1186441 23.2042311,22.1186441 C22.0878763,22.1186441 21.0512612,22.5932203 20.1741253,23.1468927 C19.2172498,23.779661 18.100895,24.4915254 16.9446705,25.3615819 C16.1472742,23.3446328 14.4727421,22.1186441 12.5191212,22.1186441 C11.2432872,22.1186441 10.2864117,22.5536723 9.20992677,23.2259887 C8.0537022,23.9378531 7.21643613,24.6101695 6.37917006,25.2033898 L6.37917006,22 C4.46541904,22.7909605 2.31244915,23.3050847 0.55817738,23.6214689 L0.55817738,24.5706215 C2.7908869,24.9265537 2.91049634,25.1242938 2.91049634,27.6158192 L2.91049634,35.8022599 C2.91049634,38.4124294 2.59153784,38.6101695 0,38.8474576 L0,39.9152542 L8.61187958,39.9152542 Z M35.1253051,50 C35.7233523,50 36.2416599,49.8022599 36.441009,49.0112994 C37.0390561,46.8757062 37.916192,44.5819209 40.5475997,38.2542373 C43.2587469,31.8870056 44.4947111,28.6045198 45.4914565,26.5084746 C46.5679414,24.2937853 46.9267697,23.9774011 49,23.6214689 L49,22.5932203 L41.7835639,22.5932203 L41.7835639,23.6214689 C44.0162734,23.9774011 44.2953621,24.4124294 43.8169243,25.8757062 C43.0195281,28.3276836 41.3848657,32.8361582 40.3083808,35.4858757 L36.7599675,25.7570621 C36.2416599,24.3333333 36.4808788,23.9378531 38.3148902,23.6214689 L38.3148902,22.5932203 L29.9023596,22.5932203 L29.9023596,23.6214689 C32.0154597,23.9378531 32.4141579,24.4519774 33.2514239,26.5084746 C34.3677787,29.1581921 36.2017901,34.1016949 37.916192,38.8079096 C38.1554109,39.480226 38.1952807,40.0338983 37.9959317,40.6271186 C37.7965826,41.1412429 37.5174939,41.8926554 36.8397071,43.1186441 C35.9227014,44.819209 35.1253051,45.7288136 33.8096013,46.519774 C33.1318145,46.9943503 32.7729862,47.3502825 32.7729862,47.9830508 C32.7729862,49.0112994 34.0089504,50 35.1253051,50 Z" class="logo-my" fill="#C00404" fill-rule="nonzero"></path>
    <path d="M63.6162524,40.0955882 C68.3549482,40.0955882 72.493809,39.3720588 75.5529671,37.6235294 C79.0320095,35.6941176 81.2513987,32.5588235 81.2513987,28.5794118 C81.2513987,22.55 76.5726864,19.8970588 70.4543704,18.9926471 L70.4543704,18.8117647 C73.9933963,17.9073529 78.7920756,15.5558824 78.7920756,9.82794118 C78.7920756,6.99411765 77.5324223,4.40147059 75.4330001,2.95441176 C73.4535449,1.62794118 70.7542878,0.904411765 66.1955425,0.904411765 L50.4198844,0.904411765 L50.4198844,2.65294118 C55.1585802,3.075 55.3985142,3.43676471 55.3985142,8.44117647 L55.3985142,32.5588235 C55.3985142,37.5632353 55.0386132,37.9852941 50,38.3470588 L50,40.0955882 L63.6162524,40.0955882 Z M63.5562689,18.2691176 L61.0369623,18.2691176 L61.0369623,6.51176471 C61.0369623,4.64264706 61.2169128,3.91911765 61.7567642,3.55735294 C62.2966156,3.19558824 63.5562689,2.95441176 64.9958727,2.95441176 C70.2744199,2.95441176 72.733743,6.27058824 72.733743,10.6117647 C72.733743,15.6764706 70.0344859,18.2691176 63.5562689,18.2691176 Z M61.0369623,32.4382353 L61.0369623,20.3191176 L63.4962854,20.3191176 C70.6943043,20.3191176 74.7731817,23.0926471 74.7731817,29.1220588 C74.7731817,35.3926471 70.5143538,37.925 65.8956251,37.925 C62.1766486,37.9852941 61.0369623,36.7794118 61.0369623,32.4382353 Z M122.320095,40.5779412 L122.560029,38.95 C121.240393,38.5882353 119.920756,37.8647059 118.361185,36.1764706 C116.981565,34.6691176 115.721911,33.0411765 113.562506,29.8455882 C111.763001,27.1323529 109.303678,23.0926471 108.283959,21.1632353 C112.662753,19.2338235 115.901862,16.0985294 115.901862,10.9132353 C115.901862,7.23529412 114.342291,4.58235294 111.882968,3.01470588 C109.603595,1.44705882 106.664404,0.904411765 102.105659,0.904411765 L86.8698523,0.904411765 L86.8698523,2.65294118 C91.4061038,3.06746324 92.0078515,3.36566533 92.0278959,8.1743818 L92.0284325,32.4985294 C92.0284325,37.5632353 91.4885811,37.9852941 86.6299184,38.3470588 L86.6299184,40.0955882 L102.825461,40.0955882 L102.825461,38.3470588 C98.1699001,37.9916409 97.5671482,37.5780258 97.5474319,32.7608308 L97.5469137,23.0323529 L99.2864349,23.0323529 C102.165642,23.0323529 103.185362,23.7558824 104.265065,25.5044118 C106.004586,28.4588235 108.104008,32.1367647 110.083463,34.9705882 C112.78272,38.8897059 115.18206,40.2764706 120.280657,40.5176471 C121.000459,40.5779412 121.660277,40.5779412 122.320095,40.5779412 Z M100.186187,20.9823529 L97.5469137,20.9823529 L97.5469137,6.15 C97.5469137,4.58235294 97.7268642,3.91911765 98.1467486,3.55735294 C98.6266165,3.19558824 99.5863524,2.95441176 101.325874,2.95441176 C105.644685,2.95441176 109.783546,5.36617647 109.783546,11.8779412 C109.783546,15.0735294 108.82381,17.4852941 106.604421,19.2941176 C105.104834,20.5 103.125378,20.9823529 100.186187,20.9823529 Z M144.79391,41 C155.830872,41 164.948363,33.0411765 164.948363,20.0176471 C164.948363,7.95882353 155.830872,0 145.453728,0 C132.677245,0 125.119325,10.1294118 125.119325,20.8617647 C125.119325,32.4382353 133.756948,41 144.79391,41 Z M146.053563,38.7691176 C137.715858,38.7691176 131.837476,30.3882353 131.837476,19.2941176 C131.837476,8.13970588 137.715858,2.23088235 144.254059,2.23088235 C151.991929,2.23088235 158.230212,9.04411765 158.230212,21.6455882 C158.230212,33.1617647 152.53178,38.7691176 146.053563,38.7691176 Z M184.403008,40.6985294 C187.402183,31.1720588 190.701275,21.6455882 194.000367,11.275 L194.120334,11.275 C197.239475,20.1382353 201.198386,31.1720588 204.497478,40.6985294 L206.5969,40.6985294 C211.57553,23.8764706 215.114556,12.6617647 216.494176,8.74264706 C218.233697,3.79852941 218.893516,3.25588235 222.972393,2.65294118 L222.972393,0.904411765 L209.596074,0.904411765 L209.596074,2.65294118 C214.33477,3.19558824 214.574704,3.91911765 213.734935,7.53676471 C212.835183,11.6970588 209.656058,23.0323529 207.136751,30.9911765 L207.016784,30.9911765 C203.477758,20.8617647 199.998716,11.2147059 196.63964,1.44705882 L194.660185,1.44705882 C191.661011,11.1544118 188.301935,20.9823529 185.182794,30.9308824 L185.062827,30.9308824 C182.54352,22.6705882 180.264147,14.7720588 177.924791,6.87352941 C177.085022,3.79852941 177.145006,3.19558824 181.583784,2.65294118 L181.583784,0.904411765 L166.467945,0.904411765 L166.467945,2.65294118 C170.066954,3.13529412 170.966706,3.73823529 172.466294,8.62205882 C175.765386,19.3544118 179.124461,29.8455882 182.243603,40.6985294 L184.403008,40.6985294 Z M262.601486,40.6382353 L262.601486,16.4 C262.601486,10.8529412 262.781436,8.13970588 262.961387,6.27058824 C263.261304,3.61764706 264.640925,2.83382353 268,2.65294118 L268,0.904411765 L253.723929,0.904411765 L253.723929,2.65294118 C257.982757,2.89411765 259.362377,3.73823529 259.662295,6.39117647 C259.837104,8.0897479 260.068518,10.7555846 260.081599,15.9363112 L260.082179,30.4485294 L259.902229,30.4485294 L235.249014,0.904411765 L225.951573,0.904411765 L225.951573,2.65294118 C228.770797,2.89411765 230.03045,3.37647059 231.23012,4.88382353 C232.369806,6.33088235 232.489773,6.75294118 232.489773,11.0338235 L232.489773,24.1779412 C232.489773,29.6647059 232.249839,32.5588235 232.069889,34.4279412 C231.769972,37.3220588 230.270384,38.1058824 226.851325,38.3470588 L226.851325,40.0955882 L241.127396,40.0955882 L241.127396,38.3470588 C236.988535,38.1058824 235.668898,37.2617647 235.368981,34.3073529 C235.189031,32.5588235 235.00908,29.6647059 235.00908,24.1779412 L235.00908,9.34558824 L235.129047,9.34558824 L260.562047,40.6382353 L262.601486,40.6382353 Z" class="logo-brown" fill="#003C71" fill-rule="nonzero"></path>
</g></svg>
